<?xml version="1.0" encoding="utf-8"?>
<!-- Generator: Adobe Illustrator 27.0.0, SVG Export Plug-In . SVG Version: 6.00 Build 0)  -->
<svg version="1.1" xmlns="http://www.w3.org/2000/svg" xmlns:xlink="http://www.w3.org/1999/xlink" x="0px" y="0px"
	 viewBox="0 0 472.7 293.6" style="enable-background:new 0 0 472.7 293.6;" xml:space="preserve">
<style type="text/css">
	.st0{fill:#0395FF;}
	.st1{display:none;}
	.st2{display:inline;fill:none;stroke:#A1DCF3;stroke-width:0.5;stroke-miterlimit:10;}
	.st3{display:inline;}
	.st4{fill:none;stroke:#A1DCF3;stroke-width:0.5;stroke-miterlimit:10;}
	.st5{fill:#A1DCF3;}
	.st6{fill:#A4DDF4;}
	.st7{font-family:'MyriadPro-Bold';}
	.st8{font-size:7.2103px;}
	.st9{display:inline;fill:#A4DDF4;}
	.st10{font-size:12px;}
</style>
<g id="Logo">
	<polygon points="332.1,57.3 373.8,140.6 356.9,173.9 298.3,57.3 	"/>
	<circle class="st0" cx="401.7" cy="69.2" r="14.2"/>
	<path d="M264.3,128c-4.6,9.4-14.2,15.8-25.3,15.8c-15.6,0-28.2-12.6-28.2-28.2s12.6-28.2,28.2-28.2c11.2,0,21,6.6,25.5,16.1
		L291.3,90C281.9,70.6,262,57.3,239,57.3c-32.2,0-58.3,26.1-58.3,58.3s26.1,58.3,58.3,58.3c22.8,0,42.6-13.1,52.2-32.3L264.3,128z"
		/>
	<path d="M140.3,128c-4.6,9.4-14.2,15.8-25.3,15.8c-15.6,0-28.2-12.6-28.2-28.2S99.4,87.4,115,87.4c11.2,0,21,6.6,25.5,16.1
		L167.3,90C157.9,70.6,138,57.3,115,57.3c-32.2,0-58.3,26.1-58.3,58.3s26.1,58.3,58.3,58.3c22.8,0,42.6-13.1,52.2-32.3L140.3,128z"
		/>
	<g>
		<path d="M56.7,228.6v-24.9h15v3.9H60.8v6.4h8.8v3.9h-8.8v6.7h10.9v3.9H56.7z"/>
		<path d="M75.6,228.6v-17.5h3.9v2.4c1.1-1.8,2.7-2.7,5-2.7c2.6,0,4.4,1.2,5.4,3.5c0.5-1.1,1.3-2,2.3-2.6c1-0.6,2.1-0.9,3.3-0.9
			c2,0,3.5,0.7,4.6,2c1.1,1.3,1.7,3.1,1.7,5.4v10.5h-3.9v-9.8c0-1.4-0.3-2.5-0.8-3.3c-0.5-0.8-1.3-1.2-2.3-1.2c-1.3,0-2.3,0.5-3,1.5
			c-0.8,1-1.1,2.4-1.1,4.2v8.6h-3.9v-9.8c0-1.4-0.3-2.5-0.8-3.3c-0.5-0.8-1.3-1.2-2.3-1.2c-1.3,0-2.3,0.5-3,1.5
			c-0.8,1-1.2,2.4-1.2,4.2v8.6H75.6z"/>
		<path d="M106.7,235.9v-24.8h3.9v2.3c0.5-0.7,1.3-1.4,2.3-1.9c1-0.5,2.1-0.8,3.3-0.8c2.4,0,4.4,0.9,6,2.7c1.6,1.8,2.4,3.9,2.4,6.4
			c0,2.5-0.8,4.7-2.4,6.4c-1.6,1.8-3.6,2.7-6,2.7c-1.2,0-2.3-0.3-3.3-0.8c-1-0.5-1.8-1.2-2.3-1.9v9.7H106.7z M119.2,223.8
			c1-1.1,1.5-2.4,1.5-4s-0.5-2.9-1.5-4c-1-1.1-2.2-1.6-3.7-1.6c-1.5,0-2.8,0.5-3.8,1.6c-1,1.1-1.5,2.4-1.5,4s0.5,2.9,1.5,4
			c1,1.1,2.2,1.6,3.8,1.6C117,225.5,118.3,224.9,119.2,223.8z"/>
		<path d="M143,213.4c1.8,1.8,2.6,3.9,2.6,6.5s-0.9,4.7-2.6,6.5c-1.8,1.8-3.9,2.6-6.5,2.6c-2.6,0-4.8-0.9-6.5-2.6
			c-1.8-1.8-2.6-3.9-2.6-6.5s0.9-4.7,2.6-6.5c1.8-1.8,3.9-2.6,6.5-2.6C139.1,210.7,141.3,211.6,143,213.4z M132.7,215.9
			c-1,1.1-1.5,2.4-1.5,3.9s0.5,2.9,1.5,3.9c1,1.1,2.3,1.6,3.8,1.6c1.5,0,2.8-0.5,3.8-1.6c1-1.1,1.5-2.4,1.5-3.9s-0.5-2.9-1.5-3.9
			c-1-1.1-2.2-1.6-3.8-1.6C134.9,214.3,133.7,214.8,132.7,215.9z"/>
		<path d="M164.4,228.6l-3.9-11.4l-3.8,11.4H153l-5.9-17.5h4.1l3.8,12.1l4-12.1h2.9l4,12.1l3.8-12.1h4.1l-5.9,17.5H164.4z"/>
		<path d="M175.4,219.9c0-2.6,0.9-4.8,2.6-6.5c1.7-1.7,3.9-2.6,6.6-2.6c2.4,0,4.4,0.8,6,2.3c1.6,1.5,2.4,3.7,2.4,6.4
			c0,0.5,0,0.9,0,1.3h-13.8c0.1,1.4,0.6,2.6,1.7,3.5c1,0.9,2.3,1.3,3.7,1.3c2.3,0,4-0.9,5-2.7l2.9,2.1c-1.7,2.7-4.4,4.1-8,4.1
			c-2.7,0-4.9-0.9-6.6-2.6C176.3,224.7,175.4,222.5,175.4,219.9z M184.4,214c-1.2,0-2.3,0.3-3.2,1s-1.6,1.6-1.8,2.9h9.7
			c-0.2-1.2-0.8-2.2-1.6-2.9C186.6,214.3,185.6,214,184.4,214z"/>
		<path d="M196.9,228.6v-17.5h3.9v3.1c0.3-1,0.9-1.8,1.8-2.4c0.9-0.6,1.8-0.9,2.8-0.9c0.5,0,1,0,1.5,0.1v4c-0.7-0.2-1.3-0.3-1.9-0.3
			c-1.2,0-2.2,0.5-3,1.4c-0.8,0.9-1.2,2.3-1.2,3.9v8.6H196.9z"/>
		<path d="M214.8,204.7c0,0.7-0.2,1.3-0.7,1.8c-0.5,0.5-1.1,0.8-1.8,0.8c-0.7,0-1.3-0.3-1.8-0.8c-0.5-0.5-0.8-1.1-0.8-1.8
			c0-0.7,0.3-1.3,0.8-1.8c0.5-0.5,1.1-0.8,1.8-0.8c0.7,0,1.3,0.3,1.8,0.8C214.5,203.4,214.8,204,214.8,204.7z M210.3,228.6v-17.5
			h3.9v17.5H210.3z"/>
		<path d="M219.3,228.6v-17.5h3.9v2.4c1.1-1.8,2.9-2.7,5.3-2.7c2,0,3.7,0.7,4.9,2c1.2,1.3,1.8,3.1,1.8,5.3v10.5h-3.9v-9.9
			c0-1.4-0.3-2.5-1-3.3c-0.7-0.8-1.5-1.2-2.7-1.2c-1.3,0-2.4,0.5-3.3,1.5c-0.8,1-1.3,2.4-1.3,4.2v8.6H219.3z"/>
		<path d="M256.8,227.4c0,2.9-0.8,5.1-2.5,6.6c-1.7,1.5-3.9,2.2-6.6,2.2c-1.7,0-3.3-0.3-4.7-0.9c-1.5-0.6-2.6-1.4-3.5-2.3l2.3-2.8
			c1.6,1.7,3.5,2.6,5.8,2.6c1.5,0,2.8-0.5,3.8-1.5c1-1,1.5-2.3,1.5-4v-1.6c-0.5,0.8-1.3,1.4-2.3,2c-1,0.5-2.1,0.8-3.3,0.8
			c-2.4,0-4.4-0.9-6-2.6c-1.6-1.7-2.4-3.8-2.4-6.3c0-2.5,0.8-4.6,2.4-6.3c1.6-1.7,3.6-2.6,6-2.6c1.2,0,2.3,0.3,3.3,0.8
			c1,0.5,1.8,1.2,2.3,1.9v-2.3h3.9V227.4z M244.3,215.8c-1,1-1.5,2.3-1.5,3.8c0,1.5,0.5,2.8,1.5,3.8c1,1,2.2,1.5,3.7,1.5
			c1.5,0,2.7-0.5,3.7-1.5c1-1,1.5-2.3,1.5-3.8c0-1.5-0.5-2.8-1.5-3.8c-1-1-2.2-1.5-3.7-1.5C246.5,214.2,245.3,214.8,244.3,215.8z"/>
		<path d="M270.2,235.9v-24.8h3.9v2.3c0.5-0.7,1.3-1.4,2.3-1.9c1-0.5,2.1-0.8,3.3-0.8c2.4,0,4.4,0.9,6,2.7c1.6,1.8,2.4,3.9,2.4,6.4
			c0,2.5-0.8,4.7-2.4,6.4c-1.6,1.8-3.6,2.7-6,2.7c-1.2,0-2.3-0.3-3.3-0.8c-1-0.5-1.8-1.2-2.3-1.9v9.7H270.2z M282.7,223.8
			c1-1.1,1.5-2.4,1.5-4s-0.5-2.9-1.5-4c-1-1.1-2.2-1.6-3.8-1.6c-1.5,0-2.8,0.5-3.8,1.6c-1,1.1-1.5,2.4-1.5,4s0.5,2.9,1.5,4
			c1,1.1,2.2,1.6,3.8,1.6C280.5,225.5,281.8,224.9,282.7,223.8z"/>
		<path d="M293.2,226.3c-1.6-1.8-2.4-3.9-2.4-6.4c0-2.5,0.8-4.7,2.4-6.4c1.6-1.8,3.6-2.7,6-2.7c1.2,0,2.3,0.3,3.3,0.8
			c1,0.5,1.8,1.2,2.3,1.9v-2.3h3.9v17.5h-3.9v-2.3c-0.5,0.7-1.3,1.4-2.3,1.9c-1,0.5-2.1,0.8-3.3,0.8
			C296.9,229,294.9,228.1,293.2,226.3z M303.7,223.8c1-1.1,1.5-2.4,1.5-4s-0.5-2.9-1.5-4c-1-1.1-2.2-1.6-3.8-1.6
			c-1.5,0-2.8,0.5-3.8,1.6c-1,1.1-1.5,2.4-1.5,4s0.5,2.9,1.5,4c1,1.1,2.2,1.6,3.8,1.6C301.5,225.5,302.7,224.9,303.7,223.8z"/>
		<path d="M319.5,235.9h-4.2l3.7-8.3l-7.5-16.6h4.2l5.4,12.4l5.4-12.4h4.3L319.5,235.9z"/>
		<path d="M333.5,228.6v-17.5h3.9v2.4c1.1-1.8,2.7-2.7,5-2.7c2.6,0,4.4,1.2,5.4,3.5c0.5-1.1,1.3-2,2.3-2.6c1-0.6,2.1-0.9,3.3-0.9
			c2,0,3.5,0.7,4.6,2c1.1,1.3,1.7,3.1,1.7,5.4v10.5h-3.9v-9.8c0-1.4-0.3-2.5-0.8-3.3c-0.5-0.8-1.3-1.2-2.3-1.2c-1.3,0-2.3,0.5-3,1.5
			c-0.8,1-1.1,2.4-1.1,4.2v8.6h-3.9v-9.8c0-1.4-0.3-2.5-0.8-3.3c-0.5-0.8-1.3-1.2-2.3-1.2c-1.3,0-2.3,0.5-3,1.5
			c-0.8,1-1.2,2.4-1.2,4.2v8.6H333.5z"/>
		<path d="M363.4,219.9c0-2.6,0.9-4.8,2.6-6.5c1.7-1.7,3.9-2.6,6.6-2.6c2.4,0,4.4,0.8,6,2.3c1.6,1.5,2.4,3.7,2.4,6.4
			c0,0.5,0,0.9,0,1.3h-13.8c0.1,1.4,0.6,2.6,1.7,3.5c1,0.9,2.3,1.3,3.7,1.3c2.3,0,4-0.9,5-2.7l2.9,2.1c-1.7,2.7-4.4,4.1-8,4.1
			c-2.7,0-4.9-0.9-6.6-2.6C364.2,224.7,363.4,222.5,363.4,219.9z M372.4,214c-1.2,0-2.3,0.3-3.2,1c-1,0.7-1.6,1.6-1.8,2.9h9.7
			c-0.2-1.2-0.8-2.2-1.6-2.9C374.6,214.3,373.6,214,372.4,214z"/>
		<path d="M384.9,228.6v-17.5h3.9v2.4c1.1-1.8,2.9-2.7,5.3-2.7c2,0,3.7,0.7,4.9,2c1.2,1.3,1.8,3.1,1.8,5.3v10.5H397v-9.9
			c0-1.4-0.3-2.5-1-3.3c-0.7-0.8-1.5-1.2-2.7-1.2c-1.3,0-2.4,0.5-3.3,1.5s-1.3,2.4-1.3,4.2v8.6H384.9z"/>
		<path d="M416,228.4c-0.8,0.3-1.8,0.4-2.9,0.4c-1.8,0-3.2-0.5-4.3-1.5s-1.7-2.4-1.7-4.3v-8.4h-3.6v-3.4h3.6v-4.9h3.9v4.9h5v3.4h-5
			v7.8c0,1.1,0.2,1.8,0.7,2.3c0.5,0.5,1.2,0.7,2.2,0.7c0.7,0,1.4-0.1,2.1-0.4V228.4z"/>
	</g>
</g>
<g id="Measurements" class="st1">
	<rect x="56.7" y="57.3" class="st2" width="359.6" height="179.3"/>
	<rect x="28.4" y="28.6" class="st2" width="416" height="173.6"/>
	<rect x="28.4" y="28.6" class="st2" width="416" height="236.7"/>
	<rect x="0" y="0.2" class="st2" width="472.7" height="293.4"/>
	<g class="st3">
		<g>
			<line class="st4" x1="239.3" y1="178.2" x2="239.3" y2="199.3"/>
			<g>
				<polygon class="st5" points="236.8,179 239.3,174.7 241.8,179 				"/>
			</g>
			<g>
				<polygon class="st5" points="236.8,198.6 239.3,202.9 241.8,198.6 				"/>
			</g>
		</g>
	</g>
	<g class="st3">
		<text transform="matrix(1 0 0 1 243.4641 187.9774)" class="st6 st7 st8">X</text>
		<text transform="matrix(1 0 0 1 243.673 194.9432)" class="st6 st7 st8">2</text>
		<line class="st4" x1="242.4" y1="189.2" x2="249" y2="189.2"/>
	</g>
	<g class="st3">
		<g>
			<line class="st4" x1="239.3" y1="3.6" x2="239.3" y2="24.7"/>
			<g>
				<polygon class="st5" points="236.8,4.3 239.3,0 241.8,4.3 				"/>
			</g>
			<g>
				<polygon class="st5" points="236.8,24 239.3,28.3 241.8,24 				"/>
			</g>
		</g>
	</g>
	<g class="st3">
		<text transform="matrix(1 0 0 1 243.4641 14.1394)" class="st6 st7 st8">X</text>
		<text transform="matrix(1 0 0 1 243.673 21.1052)" class="st6 st7 st8">2</text>
		<line class="st4" x1="242.4" y1="15.3" x2="249" y2="15.3"/>
	</g>
	<g class="st3">
		<circle class="st4" cx="14.2" cy="118" r="14.2"/>
		<circle class="st4" cx="28.3" cy="118" r="28.3"/>
		<circle class="st4" cx="42.5" cy="118" r="14.2"/>
	</g>
	<g class="st3">
		<circle class="st4" cx="430.2" cy="118" r="14.2"/>
		<circle class="st4" cx="444.4" cy="118" r="28.3"/>
		<circle class="st4" cx="458.6" cy="118" r="14.2"/>
	</g>
	<circle class="st2" cx="239.3" cy="188" r="14.2"/>
	<g class="st3">
		<circle class="st4" cx="239.3" cy="42.7" r="14.2"/>
		<circle class="st4" cx="239.3" cy="28.6" r="28.3"/>
		<circle class="st4" cx="239.3" cy="14.4" r="14.2"/>
	</g>
	<g class="st3">
		<circle class="st4" cx="239.3" cy="279.4" r="14.2"/>
		<circle class="st4" cx="239.3" cy="265.3" r="28.3"/>
		<circle class="st4" cx="239.3" cy="251.1" r="14.2"/>
	</g>
	<g class="st3">
		<g>
			<line class="st4" x1="239.3" y1="91.2" x2="239.3" y2="139.9"/>
			<g>
				<polygon class="st5" points="236.8,92 239.3,87.6 241.8,92 				"/>
			</g>
			<g>
				<polygon class="st5" points="236.8,139.2 239.3,143.5 241.8,139.2 				"/>
			</g>
		</g>
	</g>
	<text transform="matrix(1 0 0 1 241.5463 119.936)" class="st9 st7 st10">X</text>
	<g class="st3">
		<g>
			<line class="st4" x1="401.7" y1="58.6" x2="401.7" y2="79.7"/>
			<g>
				<polygon class="st5" points="399.2,59.3 401.7,55 404.2,59.3 				"/>
			</g>
			<g>
				<polygon class="st5" points="399.2,78.9 401.7,83.3 404.2,78.9 				"/>
			</g>
		</g>
	</g>
	<g class="st3">
		<g>
			<line class="st4" x1="239.3" y1="177.8" x2="239.3" y2="198.9"/>
			<g>
				<polygon class="st5" points="236.8,178.6 239.3,174.3 241.8,178.6 				"/>
			</g>
			<g>
				<polygon class="st5" points="236.8,198.2 239.3,202.5 241.8,198.2 				"/>
			</g>
		</g>
	</g>
	<text transform="matrix(1 0 0 1 405.194 68.0723)" class="st9 st7 st8">X</text>
	<text transform="matrix(1 0 0 1 405.403 75.0382)" class="st9 st7 st8">2</text>
	<line class="st2" x1="404.1" y1="69.3" x2="410.7" y2="69.3"/>
	<g class="st3">
		<text transform="matrix(1 0 0 1 243.4641 187.5783)" class="st6 st7 st8">X</text>
		<text transform="matrix(1 0 0 1 243.673 194.5441)" class="st6 st7 st8">2</text>
		<line class="st4" x1="242.4" y1="188.8" x2="249" y2="188.8"/>
	</g>
</g>
</svg>
