<?xml version="1.0" encoding="utf-8"?>
<!-- Generator: Adobe Illustrator 19.2.1, SVG Export Plug-In . SVG Version: 6.00 Build 0)  -->
<svg version="1.1" id="layer" xmlns="http://www.w3.org/2000/svg" xmlns:xlink="http://www.w3.org/1999/xlink" x="0px" y="0px"
	 viewBox="0 0 652 652" style="enable-background:new 0 0 652 652;" xml:space="preserve">
<style type="text/css">
	.st0{fill:#00A8E8;}
	.st1{fill:#FFFFFF;}
	.st2{fill:#213267;}
	.st3{fill:#52B848;}
</style>
<g>
	<path class="st0" d="M252.7,173.9H18.3v234.4c0,32.7,26.6,59.4,59.4,59.4H312V233.3C312,200.5,285.4,173.9,252.7,173.9L252.7,173.9
		z"/>
	<g>
		<path class="st1" d="M52.8,238h4.6v40.4h-4.6V238z"/>
		<path class="st1" d="M75.5,254.2c-1.9,0-3.4,0.6-4.5,2c-1.1,1.3-1.8,3.2-1.9,5.7h12.3c0-1.1-0.1-2.2-0.3-3.1
			c-0.2-0.9-0.6-1.7-1.1-2.4c-0.5-0.7-1.1-1.2-1.8-1.6C77.4,254.4,76.5,254.2,75.5,254.2L75.5,254.2z M76.6,278.9
			c-1.8,0-3.5-0.3-5-0.9c-1.5-0.6-2.8-1.5-3.9-2.7c-1.1-1.2-1.9-2.7-2.5-4.4c-0.6-1.8-0.9-3.8-0.9-6c0-2.3,0.3-4.3,0.8-6.1
			c0.5-1.8,1.3-3.3,2.3-4.5c1-1.2,2.2-2.2,3.6-2.8c1.4-0.7,2.9-1,4.6-1c1.7,0,3.1,0.3,4.5,0.9c1.3,0.6,2.4,1.4,3.4,2.5
			c0.9,1.1,1.6,2.4,2.1,3.9c0.5,1.5,0.7,3.2,0.7,5v2.8H68.9c0.1,3.2,0.8,5.6,2,7.1c1.3,1.5,3.2,2.3,5.7,2.3c0.9,0,1.6,0,2.4-0.1
			c0.7-0.1,1.4-0.2,2.1-0.4c0.7-0.2,1.3-0.4,2-0.6c0.6-0.2,1.3-0.5,1.9-0.8v4.1c-0.7,0.3-1.3,0.6-2,0.8c-0.6,0.2-1.3,0.4-2,0.6
			c-0.7,0.1-1.4,0.3-2.1,0.3C78.2,278.9,77.4,278.9,76.6,278.9L76.6,278.9z"/>
		<path class="st1" d="M101.5,275.2c0.3,0,0.6,0,1,0c0.4,0,0.7-0.1,1.1-0.1c0.4-0.1,0.7-0.1,1-0.2c0.3-0.1,0.5-0.1,0.7-0.2v3.5
			c-0.2,0.1-0.5,0.2-0.8,0.3c-0.3,0.1-0.7,0.2-1.1,0.3c-0.4,0.1-0.8,0.1-1.3,0.2c-0.4,0-0.9,0.1-1.3,0.1c-1,0-2-0.1-2.9-0.4
			c-0.9-0.3-1.6-0.7-2.3-1.4c-0.6-0.6-1.1-1.5-1.5-2.6c-0.4-1.1-0.5-2.5-0.5-4.2v-15.9h-3.9v-2l3.9-2l1.9-5.8h2.6v6.3h6.9v3.4h-6.9
			v15.9c0,1.6,0.3,2.8,0.8,3.7C99.4,274.8,100.3,275.2,101.5,275.2L101.5,275.2z"/>
		<path class="st1" d="M117.8,241.8l0.3,0.6c-0.2,0.9-0.5,1.9-0.8,2.9c-0.3,1-0.7,2-1.1,3.1c-0.4,1-0.8,2.1-1.2,3.1
			c-0.4,1-0.8,2-1.3,2.9h-3.4c0.2-1,0.5-2.1,0.7-3.2c0.2-1.1,0.5-2.2,0.7-3.3c0.2-1.1,0.4-2.2,0.6-3.2c0.2-1,0.3-2,0.5-2.9H117.8z"
			/>
		<path class="st1" d="M138.2,270.9c0,1.3-0.2,2.5-0.7,3.5c-0.5,1-1.2,1.8-2.1,2.5c-0.9,0.7-2,1.2-3.3,1.5c-1.3,0.3-2.7,0.5-4.3,0.5
			c-1.8,0-3.4-0.1-4.7-0.4c-1.3-0.3-2.4-0.7-3.4-1.3V273c0.5,0.3,1.1,0.5,1.7,0.8c0.6,0.3,1.3,0.5,2,0.7c0.7,0.2,1.4,0.4,2.2,0.5
			c0.7,0.1,1.5,0.2,2.2,0.2c1.1,0,2-0.1,2.8-0.3c0.8-0.2,1.4-0.4,1.9-0.8c0.5-0.3,0.8-0.8,1-1.3c0.2-0.5,0.3-1,0.3-1.6
			c0-0.5-0.1-1-0.2-1.4c-0.2-0.4-0.5-0.8-0.9-1.2c-0.4-0.4-1-0.8-1.8-1.2c-0.8-0.4-1.8-0.9-3-1.4c-1.2-0.5-2.3-1-3.2-1.5
			c-1-0.5-1.8-1.1-2.4-1.7c-0.7-0.6-1.2-1.3-1.5-2.1c-0.4-0.8-0.5-1.8-0.5-2.9c0-1.2,0.2-2.2,0.7-3.1c0.5-0.9,1.1-1.7,1.9-2.3
			c0.8-0.6,1.8-1.1,3-1.4c1.2-0.3,2.5-0.5,3.9-0.5c1.6,0,3.1,0.2,4.4,0.5c1.3,0.4,2.6,0.8,3.8,1.4l-1.6,3.7
			c-1.1-0.5-2.2-0.9-3.3-1.3c-1.1-0.4-2.3-0.5-3.5-0.5c-1.7,0-3,0.3-3.8,0.8c-0.8,0.6-1.2,1.4-1.2,2.4c0,0.6,0.1,1.1,0.3,1.5
			c0.2,0.4,0.5,0.8,1,1.2c0.5,0.4,1.1,0.8,1.9,1.2c0.8,0.4,1.8,0.8,2.9,1.3c1.2,0.5,2.3,1,3.2,1.5c0.9,0.5,1.7,1.1,2.4,1.7
			c0.7,0.6,1.2,1.3,1.5,2.1C138.1,268.8,138.2,269.7,138.2,270.9L138.2,270.9z"/>
		<path class="st1" d="M189.7,278.4v-17.7c0-2.2-0.4-3.8-1.2-4.9c-0.8-1.1-2.1-1.6-3.9-1.6c-1.2,0-2.2,0.2-3.1,0.6
			c-0.8,0.4-1.5,1-2.1,1.7c-0.5,0.8-0.9,1.7-1.2,2.8c-0.3,1.1-0.4,2.4-0.4,3.9v15.2h-4.6v-17.7c0-2.2-0.4-3.8-1.2-4.9
			c-0.8-1.1-2.1-1.6-3.9-1.6c-1.3,0-2.4,0.2-3.2,0.6c-0.9,0.4-1.6,1.1-2.1,1.9c-0.5,0.9-0.9,1.9-1.1,3.1c-0.2,1.2-0.3,2.7-0.3,4.3
			v14.2h-4.5v-27.5h3.7l0.6,3.7h0.3c0.4-0.7,0.9-1.3,1.4-1.9c0.6-0.5,1.2-1,1.8-1.3c0.7-0.4,1.4-0.6,2.1-0.8
			c0.7-0.2,1.5-0.3,2.3-0.3c2,0,3.7,0.4,5,1.1c1.3,0.7,2.3,1.9,2.9,3.5h0.2c0.4-0.8,1-1.5,1.6-2c0.6-0.6,1.3-1,2-1.4
			c0.7-0.4,1.5-0.7,2.3-0.8c0.8-0.2,1.6-0.3,2.5-0.3c2.9,0,5.1,0.8,6.6,2.4c1.5,1.6,2.2,4.1,2.2,7.6v17.9H189.7z"/>
		<path class="st1" d="M209.8,275.2c1,0,2-0.2,2.8-0.5c0.9-0.3,1.6-0.8,2.3-1.4c0.6-0.6,1.1-1.5,1.5-2.4c0.4-1,0.5-2.1,0.5-3.4V265
			l-3.6,0.2c-1.5,0.1-2.8,0.2-3.8,0.5c-1,0.3-1.8,0.6-2.4,1.1c-0.6,0.5-1,1.1-1.3,1.7c-0.3,0.7-0.4,1.4-0.4,2.3
			c0,1.5,0.4,2.7,1.2,3.4C207.4,274.9,208.5,275.2,209.8,275.2L209.8,275.2z M218.2,278.4l-0.9-3.8H217c-0.6,0.8-1.1,1.4-1.6,1.9
			c-0.6,0.5-1.2,1-1.8,1.3c-0.7,0.4-1.4,0.6-2.2,0.8c-0.8,0.2-1.7,0.3-2.8,0.3c-1.1,0-2.2-0.2-3.2-0.5c-1-0.3-1.8-0.8-2.5-1.5
			c-0.7-0.7-1.3-1.5-1.7-2.6c-0.4-1-0.6-2.2-0.6-3.6c0-2.7,1-4.8,2.9-6.3c1.9-1.5,4.9-2.3,8.8-2.4l4.6-0.2v-1.7
			c0-1.1-0.1-2.1-0.4-2.8c-0.2-0.7-0.6-1.4-1-1.8c-0.5-0.5-1-0.8-1.7-1c-0.7-0.2-1.4-0.3-2.3-0.3c-1.4,0-2.7,0.2-3.9,0.6
			c-1.2,0.4-2.3,0.9-3.4,1.5l-1.6-3.4c1.2-0.7,2.6-1.2,4.1-1.7c1.5-0.5,3.1-0.7,4.8-0.7c1.7,0,3.2,0.2,4.4,0.5
			c1.2,0.3,2.3,0.9,3.1,1.6c0.8,0.7,1.4,1.7,1.8,2.8c0.4,1.2,0.6,2.5,0.6,4.2v18.8L218.2,278.4z"/>
		<path class="st1" d="M234.1,264.2l3.4-4.3l7.3-9h5.3l-10,11.9l10.7,15.6h-5.2l-8.4-12.6l-2.7,2.1v10.6h-4.5v-38.9h4.5v17.9
			l-0.4,6.9H234.1z"/>
		<path class="st1" d="M265,254.2c-1.9,0-3.4,0.6-4.5,2c-1.1,1.3-1.8,3.2-1.9,5.7h12.3c0-1.1-0.1-2.2-0.3-3.1
			c-0.2-0.9-0.6-1.7-1.1-2.4c-0.5-0.7-1.1-1.2-1.8-1.6C266.9,254.4,266.1,254.2,265,254.2L265,254.2z M266.1,278.9
			c-1.8,0-3.5-0.3-5-0.9c-1.5-0.6-2.8-1.5-3.9-2.7c-1.1-1.2-1.9-2.7-2.5-4.4c-0.6-1.8-0.9-3.8-0.9-6c0-2.3,0.3-4.3,0.8-6.1
			c0.5-1.8,1.3-3.3,2.3-4.5c1-1.2,2.2-2.2,3.6-2.8c1.4-0.7,2.9-1,4.6-1c1.7,0,3.1,0.3,4.5,0.9c1.3,0.6,2.4,1.4,3.4,2.5
			c0.9,1.1,1.6,2.4,2.1,3.9c0.5,1.5,0.7,3.2,0.7,5v2.8h-17.3c0.1,3.2,0.8,5.6,2,7.1c1.3,1.5,3.2,2.3,5.7,2.3c0.9,0,1.6,0,2.4-0.1
			c0.7-0.1,1.4-0.2,2.1-0.4c0.7-0.2,1.3-0.4,2-0.6c0.6-0.2,1.3-0.5,1.9-0.8v4.1c-0.7,0.3-1.3,0.6-2,0.8c-0.6,0.2-1.3,0.4-2,0.6
			c-0.7,0.1-1.4,0.3-2.1,0.3C267.8,278.9,267,278.9,266.1,278.9L266.1,278.9z"/>
		<path class="st1" d="M64.3,311.4c-1.3,0-2.3,0.2-3.2,0.6c-0.9,0.4-1.6,1-2.1,1.8c-0.5,0.8-0.9,1.8-1.2,2.9
			c-0.3,1.2-0.4,2.5-0.4,4.1v1c0,1.7,0.1,3.2,0.3,4.5c0.2,1.3,0.6,2.4,1.2,3.3c0.5,0.9,1.3,1.6,2.2,2c0.9,0.5,2,0.7,3.4,0.7
			c2.3,0,3.9-0.9,5-2.7c1.1-1.8,1.6-4.4,1.6-7.8c0-3.5-0.5-6.1-1.6-7.8C68.2,312.2,66.6,311.4,64.3,311.4z M65.2,336.1
			c-1,0-1.9-0.1-2.7-0.3c-0.8-0.2-1.5-0.5-2.2-0.9c-0.6-0.4-1.2-0.8-1.7-1.3c-0.5-0.5-0.9-1-1.3-1.5H57c0,0.6,0.1,1.1,0.1,1.6
			c0,0.4,0.1,0.9,0.1,1.3c0,0.5,0.1,0.8,0.1,1.1v10.4h-4.6v-38.4h3.7l0.6,3.7h0.2c0.4-0.6,0.8-1.1,1.3-1.6c0.5-0.5,1-1,1.7-1.3
			c0.6-0.4,1.4-0.7,2.2-0.9c0.8-0.2,1.7-0.3,2.7-0.3c1.6,0,3,0.3,4.3,0.9c1.3,0.6,2.4,1.5,3.3,2.7c0.9,1.2,1.6,2.7,2.1,4.4
			c0.5,1.8,0.8,3.8,0.8,6.2c0,2.4-0.3,4.4-0.8,6.2c-0.5,1.8-1.2,3.3-2.1,4.5c-0.9,1.2-2,2.1-3.3,2.7
			C68.2,335.8,66.7,336.1,65.2,336.1L65.2,336.1z"/>
		<path class="st1" d="M90.2,332.4c1,0,2-0.2,2.8-0.5c0.9-0.3,1.6-0.8,2.3-1.4c0.6-0.6,1.1-1.5,1.5-2.4c0.4-1,0.5-2.1,0.5-3.4v-2.5
			l-3.6,0.2c-1.5,0.1-2.8,0.2-3.8,0.5c-1,0.3-1.8,0.6-2.4,1.1c-0.6,0.5-1,1.1-1.3,1.7c-0.3,0.7-0.4,1.4-0.4,2.3
			c0,1.5,0.4,2.7,1.2,3.4C87.8,332,88.9,332.4,90.2,332.4z M98.6,335.6l-0.9-3.8h-0.2c-0.5,0.8-1.1,1.4-1.7,1.9
			c-0.6,0.5-1.1,1-1.8,1.3c-0.6,0.4-1.4,0.6-2.2,0.8c-0.8,0.2-1.7,0.3-2.8,0.3c-1.2,0-2.2-0.2-3.2-0.5c-1-0.3-1.8-0.8-2.5-1.5
			c-0.7-0.7-1.3-1.5-1.7-2.6c-0.4-1-0.6-2.2-0.6-3.6c0-2.7,1-4.8,2.9-6.3c1.9-1.5,4.9-2.3,8.8-2.4l4.6-0.2v-1.7
			c0-1.1-0.1-2.1-0.4-2.8c-0.2-0.7-0.6-1.4-1.1-1.8c-0.5-0.5-1-0.8-1.7-1c-0.7-0.2-1.4-0.3-2.3-0.3c-1.4,0-2.7,0.2-3.9,0.6
			c-1.2,0.4-2.3,0.9-3.4,1.5L83,310c1.2-0.7,2.6-1.2,4.1-1.7c1.5-0.5,3.1-0.7,4.8-0.7c1.7,0,3.2,0.2,4.4,0.5
			c1.2,0.3,2.3,0.9,3.1,1.6c0.8,0.7,1.4,1.7,1.8,2.8c0.4,1.2,0.6,2.5,0.6,4.2v18.8H98.6z"/>
		<path class="st1" d="M106.2,308.1h4.7l5.4,15.3c0.2,0.7,0.5,1.4,0.7,2.1c0.2,0.7,0.5,1.5,0.7,2.2c0.2,0.7,0.4,1.4,0.5,2.1
			c0.2,0.7,0.3,1.3,0.3,1.9h0.2c0.1-0.4,0.2-1,0.4-1.7c0.2-0.7,0.4-1.5,0.6-2.3s0.5-1.6,0.7-2.4c0.2-0.8,0.5-1.5,0.6-2l5-15.3h4.7
			l-10.9,31c-0.5,1.3-1,2.6-1.5,3.6c-0.5,1.1-1.2,2-1.9,2.7c-0.7,0.7-1.6,1.3-2.5,1.7c-1,0.4-2.1,0.6-3.5,0.6c-0.9,0-1.6,0-2.3-0.1
			c-0.6-0.1-1.2-0.2-1.6-0.3v-3.6c0.4,0.1,0.8,0.2,1.3,0.2c0.5,0.1,1.1,0.1,1.7,0.1c0.8,0,1.5-0.1,2.1-0.3c0.6-0.2,1.1-0.5,1.5-0.8
			c0.4-0.4,0.8-0.8,1.1-1.3c0.3-0.5,0.6-1.1,0.8-1.8l1.4-4L106.2,308.1z"/>
		<path class="st1" d="M169.4,335.6v-17.7c0-2.2-0.4-3.8-1.3-4.9c-0.8-1.1-2.1-1.6-3.9-1.6c-1.2,0-2.2,0.2-3.1,0.6
			c-0.8,0.4-1.5,1-2.1,1.7c-0.5,0.8-0.9,1.7-1.2,2.8c-0.2,1.1-0.4,2.4-0.4,3.9v15.2h-4.6v-17.7c0-2.2-0.4-3.8-1.2-4.9
			c-0.8-1.1-2.1-1.6-3.9-1.6c-1.3,0-2.4,0.2-3.2,0.6c-0.9,0.4-1.6,1.1-2.1,1.9c-0.5,0.8-0.9,1.9-1.1,3.1c-0.2,1.2-0.3,2.7-0.3,4.3
			v14.2h-4.6v-27.5h3.7l0.7,3.7h0.2c0.4-0.7,0.9-1.3,1.4-1.9c0.6-0.5,1.2-1,1.8-1.3c0.7-0.3,1.4-0.6,2.1-0.8
			c0.7-0.2,1.5-0.2,2.3-0.2c2,0,3.7,0.4,5,1.1c1.3,0.7,2.3,1.9,2.9,3.5h0.2c0.4-0.8,1-1.5,1.6-2c0.6-0.6,1.3-1,2-1.4
			c0.7-0.4,1.5-0.7,2.3-0.8c0.8-0.2,1.6-0.3,2.4-0.3c2.9,0,5.1,0.8,6.6,2.4c1.5,1.6,2.2,4.1,2.2,7.6v17.9L169.4,335.6z"/>
		<path class="st1" d="M191.7,311.4c-1.9,0-3.4,0.6-4.5,2c-1.1,1.3-1.8,3.2-1.9,5.7h12.3c0-1.1-0.1-2.2-0.3-3.1
			c-0.2-0.9-0.6-1.7-1.1-2.4c-0.5-0.7-1.1-1.2-1.8-1.6C193.6,311.6,192.7,311.4,191.7,311.4z M192.8,336.1c-1.8,0-3.5-0.3-5-0.9
			c-1.5-0.6-2.8-1.5-3.9-2.7c-1.1-1.2-1.9-2.7-2.5-4.4c-0.6-1.8-0.9-3.8-0.9-6c0-2.3,0.3-4.3,0.8-6.1c0.6-1.8,1.3-3.3,2.3-4.5
			c1-1.2,2.2-2.2,3.6-2.8c1.4-0.6,2.9-1,4.6-1c1.7,0,3.1,0.3,4.5,0.9c1.3,0.6,2.4,1.4,3.4,2.5c0.9,1.1,1.6,2.4,2.1,3.9
			c0.5,1.5,0.7,3.2,0.7,5v2.8h-17.3c0.1,3.2,0.8,5.6,2,7.1c1.3,1.5,3.2,2.3,5.7,2.3c0.9,0,1.6,0,2.4-0.1c0.7-0.1,1.4-0.2,2.1-0.4
			c0.7-0.2,1.3-0.4,2-0.6c0.6-0.2,1.3-0.5,1.9-0.8v4.1c-0.7,0.3-1.3,0.6-2,0.8c-0.6,0.2-1.3,0.4-2,0.6c-0.7,0.2-1.4,0.3-2.1,0.3
			C194.5,336,193.7,336.1,192.8,336.1L192.8,336.1z"/>
		<path class="st1" d="M226.5,335.6v-17.7c0-2.2-0.4-3.8-1.3-4.9c-0.9-1.1-2.2-1.6-4.1-1.6c-1.4,0-2.5,0.2-3.4,0.6
			c-0.9,0.4-1.7,1.1-2.2,1.9c-0.6,0.8-1,1.9-1.2,3.1c-0.2,1.2-0.4,2.7-0.4,4.3v14.2h-4.6v-27.5h3.7l0.6,3.7h0.2
			c0.4-0.7,0.9-1.3,1.5-1.9c0.6-0.5,1.2-1,1.9-1.3c0.7-0.3,1.4-0.6,2.2-0.8c0.8-0.2,1.6-0.2,2.4-0.2c3,0,5.3,0.8,6.9,2.4
			c1.5,1.6,2.3,4.1,2.3,7.6v17.9H226.5z"/>
		<path class="st1" d="M247.6,332.3c0.3,0,0.6,0,1-0.1c0.4,0,0.7-0.1,1.1-0.1c0.4,0,0.7-0.1,1-0.2c0.3-0.1,0.5-0.1,0.7-0.2v3.5
			c-0.2,0.1-0.5,0.2-0.8,0.3c-0.3,0.1-0.7,0.2-1.1,0.3c-0.4,0.1-0.8,0.1-1.3,0.2c-0.4,0-0.9,0.1-1.3,0.1c-1,0-2-0.1-2.9-0.4
			c-0.9-0.3-1.6-0.7-2.3-1.4c-0.6-0.6-1.1-1.5-1.5-2.6c-0.4-1.1-0.5-2.5-0.5-4.2v-15.9h-3.9v-2l3.9-2l2-5.8h2.6v6.3h6.9v3.4h-6.9
			v15.9c0,1.6,0.3,2.8,0.8,3.7C245.5,331.9,246.4,332.3,247.6,332.3L247.6,332.3z"/>
		<path class="st1" d="M69.9,395.5v-17.7c0-2.2-0.4-3.8-1.3-4.9c-0.9-1.1-2.2-1.6-4.1-1.6c-1.3,0-2.5,0.2-3.4,0.6
			c-0.9,0.4-1.7,1.1-2.2,1.9c-0.6,0.9-1,1.9-1.2,3.1c-0.2,1.2-0.4,2.7-0.4,4.3v14.2h-4.6v-37.8h4.6v10.4l-0.2,3.6h0.3
			c0.4-0.7,0.9-1.3,1.5-1.9c0.6-0.5,1.2-1,1.9-1.3c0.7-0.4,1.4-0.6,2.2-0.8c0.8-0.2,1.6-0.2,2.4-0.2c3.1,0,5.3,0.8,6.9,2.4
			c1.5,1.6,2.3,4.1,2.3,7.6v17.9L69.9,395.5z"/>
		<path class="st1" d="M90.1,392.3c1,0,2-0.2,2.8-0.5c0.9-0.3,1.6-0.8,2.3-1.4c0.6-0.6,1.1-1.4,1.5-2.4c0.4-1,0.5-2.1,0.5-3.4v-2.5
			l-3.6,0.2c-1.5,0.1-2.8,0.2-3.8,0.5c-1,0.3-1.8,0.6-2.4,1.1c-0.6,0.5-1,1.1-1.3,1.7c-0.3,0.7-0.4,1.4-0.4,2.3
			c0,1.5,0.4,2.7,1.2,3.4C87.7,392,88.7,392.3,90.1,392.3L90.1,392.3z M98.4,395.5l-0.9-3.8h-0.2c-0.6,0.7-1.1,1.4-1.7,1.9
			c-0.6,0.5-1.2,1-1.8,1.3c-0.7,0.4-1.4,0.6-2.2,0.8c-0.8,0.2-1.7,0.3-2.8,0.3c-1.2,0-2.2-0.2-3.2-0.5c-1-0.3-1.8-0.8-2.5-1.5
			c-0.7-0.7-1.3-1.5-1.7-2.6c-0.4-1-0.6-2.2-0.6-3.6c0-2.7,1-4.8,2.9-6.3c1.9-1.5,4.9-2.3,8.8-2.4l4.6-0.2v-1.7
			c0-1.1-0.1-2.1-0.4-2.8c-0.2-0.8-0.6-1.4-1.1-1.8c-0.5-0.5-1-0.8-1.7-1c-0.7-0.2-1.4-0.3-2.3-0.3c-1.4,0-2.7,0.2-3.9,0.6
			c-1.2,0.4-2.3,0.9-3.4,1.5l-1.6-3.4c1.2-0.7,2.6-1.2,4.1-1.7c1.5-0.5,3.1-0.7,4.8-0.7c1.7,0,3.2,0.2,4.4,0.5
			c1.2,0.3,2.3,0.9,3.1,1.6c0.8,0.7,1.4,1.7,1.8,2.8c0.4,1.2,0.6,2.5,0.6,4.2v18.8L98.4,395.5z"/>
		<path class="st1" d="M121.7,371.3c-1.3,0-2.3,0.2-3.2,0.6c-0.9,0.4-1.6,1-2.1,1.8c-0.5,0.8-0.9,1.8-1.2,2.9
			c-0.3,1.2-0.4,2.5-0.4,4.1v1c0,1.7,0.1,3.2,0.3,4.5c0.2,1.3,0.6,2.4,1.1,3.3c0.5,0.9,1.3,1.6,2.2,2c0.9,0.5,2,0.7,3.4,0.7
			c2.3,0,3.9-0.9,5-2.7c1.1-1.8,1.6-4.4,1.6-7.8c0-3.5-0.5-6.1-1.6-7.8C125.6,372.2,123.9,371.3,121.7,371.3L121.7,371.3z
			 M122.5,396c-1,0-1.9-0.1-2.7-0.3c-0.8-0.2-1.5-0.5-2.2-0.9c-0.6-0.4-1.2-0.8-1.7-1.3c-0.5-0.5-0.9-1-1.3-1.5h-0.3
			c0,0.6,0.1,1.1,0.1,1.6c0,0.4,0.1,0.9,0.1,1.3c0,0.5,0,0.8,0,1.1v11.7h-4.6V368h3.7l0.7,3.7h0.2c0.4-0.6,0.8-1.1,1.3-1.6
			c0.5-0.5,1-1,1.7-1.3c0.6-0.4,1.4-0.7,2.2-0.9c0.8-0.2,1.7-0.3,2.7-0.3c1.6,0,3,0.3,4.3,0.9c1.3,0.6,2.4,1.5,3.3,2.7
			c0.9,1.2,1.6,2.7,2.1,4.4c0.5,1.8,0.7,3.8,0.7,6.2c0,2.4-0.3,4.4-0.7,6.2c-0.5,1.8-1.2,3.3-2.1,4.5c-0.9,1.2-2,2.1-3.3,2.7
			C125.5,395.7,124.1,396,122.5,396z"/>
		<path class="st1" d="M151.7,371.3c-1.3,0-2.3,0.2-3.2,0.6c-0.9,0.4-1.6,1-2.1,1.8c-0.5,0.8-0.9,1.8-1.2,2.9
			c-0.3,1.2-0.4,2.5-0.4,4.1v1c0,1.7,0.1,3.2,0.3,4.5c0.2,1.3,0.6,2.4,1.1,3.3c0.5,0.9,1.3,1.6,2.2,2c0.9,0.5,2,0.7,3.4,0.7
			c2.3,0,3.9-0.9,5-2.7c1.1-1.8,1.6-4.4,1.6-7.8c0-3.5-0.5-6.1-1.6-7.8C155.6,372.2,154,371.3,151.7,371.3L151.7,371.3z M152.6,396
			c-1,0-1.9-0.1-2.7-0.3c-0.8-0.2-1.5-0.5-2.2-0.9c-0.6-0.4-1.2-0.8-1.7-1.3c-0.5-0.5-0.9-1-1.3-1.5h-0.3c0,0.6,0.1,1.1,0.2,1.6
			c0,0.4,0.1,0.9,0.1,1.3c0,0.5,0,0.8,0,1.1v11.7h-4.6V368h3.7l0.7,3.7h0.2c0.4-0.6,0.8-1.1,1.3-1.6c0.5-0.5,1-1,1.7-1.3
			c0.6-0.4,1.4-0.7,2.2-0.9c0.8-0.2,1.7-0.3,2.7-0.3c1.6,0,3,0.3,4.3,0.9c1.3,0.6,2.4,1.5,3.3,2.7c0.9,1.2,1.6,2.7,2.1,4.4
			c0.5,1.8,0.7,3.8,0.7,6.2c0,2.4-0.3,4.4-0.7,6.2c-0.5,1.8-1.2,3.3-2.1,4.5c-0.9,1.2-2,2.1-3.3,2.7
			C155.5,395.7,154.1,396,152.6,396L152.6,396z"/>
		<path class="st1" d="M179.9,371.3c-1.9,0-3.4,0.6-4.5,2c-1.1,1.3-1.8,3.2-1.9,5.7h12.3c0-1.1-0.1-2.2-0.3-3.1
			c-0.2-0.9-0.6-1.7-1.1-2.4c-0.5-0.7-1.1-1.2-1.8-1.5C181.8,371.5,180.9,371.3,179.9,371.3L179.9,371.3z M181,396
			c-1.8,0-3.5-0.3-5-0.9c-1.5-0.6-2.8-1.5-3.9-2.7c-1.1-1.2-1.9-2.7-2.5-4.4c-0.6-1.8-0.9-3.8-0.9-6c0-2.3,0.3-4.3,0.8-6.1
			c0.6-1.8,1.3-3.3,2.3-4.5c1-1.2,2.2-2.2,3.6-2.8c1.4-0.6,2.9-1,4.6-1c1.7,0,3.1,0.3,4.5,0.9c1.3,0.6,2.4,1.4,3.4,2.5
			c0.9,1.1,1.6,2.4,2.1,3.9c0.5,1.5,0.7,3.2,0.7,5v2.8h-17.3c0.1,3.2,0.8,5.6,2,7.1c1.3,1.5,3.2,2.3,5.7,2.3c0.9,0,1.6,0,2.4-0.1
			c0.7-0.1,1.4-0.2,2.1-0.4c0.7-0.2,1.3-0.4,2-0.6c0.6-0.2,1.3-0.5,1.9-0.8v4.1c-0.7,0.3-1.3,0.6-2,0.8c-0.6,0.2-1.3,0.4-2,0.6
			c-0.7,0.1-1.4,0.3-2.1,0.3C182.7,396,181.9,396,181,396L181,396z"/>
		<path class="st1" d="M214.8,395.5v-17.7c0-2.2-0.4-3.8-1.3-4.9c-0.9-1.1-2.3-1.6-4.1-1.6c-1.4,0-2.5,0.2-3.4,0.6
			c-0.9,0.4-1.7,1.1-2.2,1.9c-0.6,0.9-1,1.9-1.2,3.1c-0.2,1.2-0.4,2.7-0.4,4.3v14.2h-4.6V368h3.7l0.7,3.7h0.3
			c0.4-0.7,0.9-1.3,1.5-1.9c0.6-0.5,1.2-1,1.9-1.3c0.7-0.4,1.4-0.6,2.2-0.8c0.8-0.2,1.6-0.2,2.4-0.2c3.1,0,5.4,0.8,6.9,2.4
			c1.5,1.6,2.3,4.1,2.3,7.6v17.9H214.8z"/>
	</g>
	<path class="st0" d="M558.9,467.6H324.6V233.3c0-32.7,26.6-59.4,59.4-59.4h234.4v234.4C618.3,441,591.7,467.6,558.9,467.6z"/>
	<path class="st1" d="M326.6,465.6h232.3c31.6,0,57.3-25.7,57.3-57.3V176H383.9c-31.6,0-57.3,25.7-57.3,57.3L326.6,465.6z"/>
	<path class="st2" d="M493.2,280.8c0.9-2.5,2-5.4,2-8.1c0-2.7-0.9-4.5-2.5-6.1v-0.4h15.7L488,326.4c-2.2-0.3-4.4-1.5-6.2-2.7
		c-8.2-5-9.3-7.5-12.5-17l-9.1-27.6c-1.6-5-2.8-8.8-6.2-12.4v-0.4h13.6c2.7,0,5.5,0.2,7.5-1.9h0.3l11.5,36.2L493.2,280.8z
		 M447,280.2h-0.3c-3.3-2.5-6.8-4.1-11.2-4.1c-3.2,0-6.4,1.5-8.3,4.3c-2.4,3.5-2.8,8.2-2.8,12.3c0,5.1,1.4,11.6,4.6,15.5
		c2.4,3.2,6.3,4.3,10,4.3c5,0,10.7-2.5,14.5-5.9h0.3l-3.5,13.6c-5.8,3.2-12.4,4.7-18.9,4.7c-15.1,0-28.2-11.3-28.2-29.3
		c0-20.5,14-31.1,30.9-31.1c4.3,0,8.7,0.9,12.9,1.2V280.2z M392.2,280.2h-0.3c-3.3-2.5-6.8-4.1-11.2-4.1c-3.2,0-6.3,1.5-8.3,4.3
		c-2.4,3.5-2.8,8.2-2.8,12.3c0,5.1,1.4,11.6,4.6,15.5c2.4,3.2,6.4,4.3,10,4.3c5,0,10.7-2.5,14.5-5.9h0.3l-3.5,13.6
		c-5.8,3.2-12.4,4.7-18.9,4.7c-15.1,0-28.2-11.3-28.2-29.3c0-20.5,14-31.1,30.9-31.1c4.3,0,8.7,0.9,12.9,1.2V280.2z"/>
	<path class="st0" d="M550.5,325.9C615.4,299.5,553.4,275.3,550.5,325.9z"/>
	<path class="st3" d="M528.1,344.3C568.3,306.3,501.8,270.2,528.1,344.3z"/>
	<path class="st0" d="M530.6,349.1C631.9,375.5,607,318.5,530.6,349.1z"/>
	<path class="st2" d="M530.5,352.6C520.6,412.3,631.4,379.4,530.5,352.6z"/>
	<path class="st2" d="M528,352.6C423.7,385.4,517.3,412.3,528,352.6z"/>
	<path class="st3" d="M525.3,349C459.2,320.2,420.9,381.4,525.3,349z"/>
</g>
</svg>
